<svg xmlns="http://www.w3.org/2000/svg" width="247.625" height="246.5" viewBox="0 0 247.625 246.5">
  <defs>
    <style>
      .cls-1 {
        fill: #fff;
        fill-rule: evenodd;
      }
    </style>
  </defs>
  <path id="_00.svg" data-name="00.svg" class="cls-1" d="M580.968,1801.96a20.985,20.985,0,0,1-26.221,12.69L535.7,1846.83a123.339,123.339,0,0,1,45.456,83.7c0.013,0.13.02,0.27,0.02,0.4a4.066,4.066,0,0,1-4.046,4.07H340.559c-0.133,0-.265-0.01-0.4-0.02a4.07,4.07,0,0,1-3.634-4.45,123.353,123.353,0,0,1,45.424-83.68l-18.935-31.97a21.655,21.655,0,1,1,10.313-33.75,21.709,21.709,0,0,1-3.239,29.79l18.387,31.05a122.079,122.079,0,0,1,26.053-13.84l-30.583-100.06c-5.936-1.23-11.639-8.27-14.665-18.17-1.964-6.42-1.945-11.57.054-15.31a12.143,12.143,0,0,1,15.736-4.83c3.749,1.97,6.646,6.23,8.608,12.65,3.039,9.94,2.249,18.99-1.976,23.35l30.47,99.72a123.294,123.294,0,0,1,36.635-5.55c0.472,0.02.923,0.01,1.383,0.03l4.451-68.31a21.045,21.045,0,1,1,8.072.71l-4.428,67.96a122.628,122.628,0,0,1,32.338,6.88l24.307-85.35a14.225,14.225,0,0,1-3.7-8.1,36.343,36.343,0,0,1,1.293-15.24c4.249-14.91,12.572-14.94,17.15-13.62s11.632,5.74,7.387,20.66a36.151,36.151,0,0,1-6.906,13.58,14.13,14.13,0,0,1-7.42,4.9L508.19,1830.2a122.367,122.367,0,0,1,20.979,11.75l18.5-31.26A21.051,21.051,0,1,1,580.968,1801.96Zm-195.03-97.17c-1.626-5.33-3.712-8.15-6.033-8.15a4.2,4.2,0,0,0-1.245.22,3.224,3.224,0,0,0-2.232,1.75c-0.6,1.23-.977,3.78.594,8.92,2.941,9.63,7.83,12.98,8.76,12.71C386.7,1719.95,388.911,1714.49,385.938,1704.79Zm-16.926,93.27a12.95,12.95,0,1,0-5.953,7.98A13.1,13.1,0,0,0,369.012,1798.06Zm119.1,87.89a4.061,4.061,0,0,1-2.786-5.01l13.077-45.93a115.251,115.251,0,0,0-30.637-6.59l-4.9,75.26a4.062,4.062,0,0,1-4.036,3.79h-0.2a4.066,4.066,0,0,1-3.84-4.32l4.891-75.09c-0.292-.01-0.577-0.02-0.88-0.01a115.184,115.184,0,0,0-34.238,5.19l9.422,30.84a4.044,4.044,0,0,1-2.687,5.05,4.233,4.233,0,0,1-1.18.19,4.051,4.051,0,0,1-3.876-2.87l-9.337-30.56a114.225,114.225,0,0,0-26.5,14.67,4.07,4.07,0,0,1-1.006.88,2.606,2.606,0,0,1-.358.16,115.3,115.3,0,0,0-43.915,75.28H572.562a115.131,115.131,0,0,0-66.607-88.81l-12.843,45.09A4.053,4.053,0,0,1,488.112,1885.95Zm-18.443-141.59a13,13,0,0,0,1.695-25.95c-0.288-.02-0.578-0.03-0.867-0.03A13.005,13.005,0,0,0,469.669,1744.36Zm61.09-8.16c0.194,0.05,1.432-.24,3.254-2.34a28.576,28.576,0,0,0,5.255-10.52c1.513-5.31,1.03-7.86.358-9.07a3.206,3.206,0,0,0-2.174-1.57,4.072,4.072,0,0,0-1.222-.2c-2.951,0-4.854,4.49-5.927,8.26l-0.006.02a28.487,28.487,0,0,0-1.066,11.74C529.662,1735.24,530.56,1736.13,530.759,1736.2Zm43.133,55.21a12.953,12.953,0,0,0-23.718-3.41,13.056,13.056,0,0,0,4.532,17.81A12.982,12.982,0,0,0,573.892,1791.41Z" transform="translate(-334.656 -1688.5)"/>
</svg>

