<svg xmlns="http://www.w3.org/2000/svg" width="247" height="247" viewBox="0 0 247 247">
  <defs>
    <style>
      .cls-1 {
        fill: #fff;
        fill-rule: evenodd;
      }
    </style>
  </defs>
  <path id="_1.svg" data-name="1.svg" class="cls-1" d="M1599.81,1953.35a4.032,4.032,0,0,1-2.87,1.19h-2.07v4.98A11.51,11.51,0,0,1,1583.4,1971h-12.23a11.5,11.5,0,0,1-11.47-11.48v-4.98H1395.94v4.98a11.51,11.51,0,0,1-11.47,11.48h-12.23a11.5,11.5,0,0,1-11.47-11.48v-4.98h-2.7a4.059,4.059,0,0,1-4.06-4.07V1818.79a4.071,4.071,0,0,1,4.06-4.07h2.06v-79.54a11.22,11.22,0,0,1,11.19-11.18h13.44a11.212,11.212,0,0,1,11.18,11.18v8.21h162.77v-8.21A11.22,11.22,0,0,1,1569.9,1724h13.44a11.233,11.233,0,0,1,11.19,11.18v79.54h2.41a4.078,4.078,0,0,1,4.06,4.07v131.68A4.08,4.08,0,0,1,1599.81,1953.35Zm-203.87-174.14v35.51h162.77v-35.51H1395.94Zm170.9-35.7a14.173,14.173,0,0,1,12.78,14.12v7.34a14.173,14.173,0,0,1-12.78,14.12v35.63h19.56v-79.54a3.075,3.075,0,0,0-3.07-3.06H1569.9a3.06,3.06,0,0,0-3.06,3.06v8.33Zm-184.09,21.46a6.129,6.129,0,0,0,6.11,6.11h176.52a6.135,6.135,0,0,0,6.11-6.11v-7.35a6.127,6.127,0,0,0-6.11-6.1H1388.86a6.127,6.127,0,0,0-6.11,6.1v7.35Zm5.07,14.19a14.272,14.272,0,0,1-13.19-14.19v-7.35a14.287,14.287,0,0,1,13.19-14.19v-8.25a3.075,3.075,0,0,0-3.07-3.06h-13.44a3.066,3.066,0,0,0-3.06,3.06v79.54h19.57v-35.56Zm-25.69,43.69v123.56h230.75V1822.85H1362.13Zm6.77,131.69v4.98a3.355,3.355,0,0,0,3.34,3.35h12.24a3.355,3.355,0,0,0,3.34-3.35v-4.98H1368.9Zm198.93,0v4.98a3.35,3.35,0,0,0,3.35,3.35h12.23a3.363,3.363,0,0,0,3.35-3.35v-4.98h-18.93Zm29.1-138.82h0Zm-46.86,90.61a13.315,13.315,0,0,1-11.24-10.49l-8.6-1.12a53.945,53.945,0,0,1-46.64,44.98l-0.02.02-0.26.03c-0.15.02-.3,0-0.46,0.03a51.766,51.766,0,0,1-6.08.35,53.4,53.4,0,0,1-37.81-15.72l-17.13,13.18a3.94,3.94,0,0,1-2.45.85h-0.04a4.056,4.056,0,0,1-2.46-7.28l16.74-12.88a53.463,53.463,0,0,1-8.69-18.06,1.2,1.2,0,0,1-.05-0.23l-0.09-.33c-0.01-.03-0.01-0.07-0.02-0.11a53.823,53.823,0,0,1-1.39-19.34l-27.21-3.54a4.063,4.063,0,0,1-3.33-4.52,4.122,4.122,0,0,1,4.55-3.5l27.54,3.57a53.724,53.724,0,0,1,43.45-39.23l0.04-.02,0.28-.04c0.03,0,.07-0.01.13-0.01a53.98,53.98,0,0,1,50.14,19.42l4.16-3.21a13.036,13.036,0,1,1,5.2,6.25l-4.76,3.67a53.737,53.737,0,0,1,7.35,27.57l8.75,1.14a13.16,13.16,0,0,1,13.87-7.8l0.22,0.03A13.3,13.3,0,0,1,1550.07,1906.33Zm2.42-18.32a5.272,5.272,0,0,0-.68-0.04A5.159,5.159,0,1,0,1552.49,1888.01Zm-86.12-41.85-0.59-4.34c-0.23.05-.45,0.1-0.68,0.17h0a45.437,45.437,0,0,0-17.43,9.08Zm2.56,18.58-1.44-10.49-29.26,7.69c-0.07.1-.13,0.2-0.2,0.3-0.24.36-.49,0.73-0.71,1.12h0a45.3,45.3,0,0,0-4.53,10.86Zm48.08,28.26,1.66,12.12a45.324,45.324,0,0,0,3.51-11.45Zm5.77-7.44a46.533,46.533,0,0,0-1.56-11.26,45.645,45.645,0,0,0-9.21-17.6l3.85,27.96Zm-14.13,6.35-5.88-.76a4.051,4.051,0,0,1-3.46-4.48,4.01,4.01,0,0,1,1.51-2.71,3.966,3.966,0,0,1,2.98-.86l3.71,0.48-4.85-35.27c-1.07-.73-1.95-1.3-2.81-1.8a45.545,45.545,0,0,0-7.72-3.52l11.1,80.74a45.644,45.644,0,0,0,8.7-7.96ZM1495.62,1928l-11.97-87.11a43.74,43.74,0,0,0-6.57-.5c-1.01,0-2.1.04-3.28,0.14l12.44,90.5c0.9-.18,1.79-0.38,2.67-0.62A44.735,44.735,0,0,0,1495.62,1928Zm-61.69-26.42a44.89,44.89,0,0,0,8.17,14.25l11.3-19.36Zm38.66-10.15-8.07,2.12-16.43,28.13a45.844,45.844,0,0,0,6.06,4.21c0.9,0.51,1.81.97,2.61,1.36l16.8-28.77Zm-40.72,2.3,39.61-10.4-1.45-10.49L1431.35,1883A45.9,45.9,0,0,0,1431.87,1893.73Zm32.56,36.49a44.874,44.874,0,0,0,13.73,1.74l-2.81-20.44Zm75.85-85.21a5,5,0,0,0-4.3-5.59c-0.21-.02-0.44-0.04-0.66-0.04a5.009,5.009,0,0,0-3.02,1.03h0A4.984,4.984,0,1,0,1540.28,1845.01Z" transform="translate(-1354 -1724)"/>
</svg>

