<svg xmlns="http://www.w3.org/2000/svg" width="67" height="67" viewBox="0 0 67 67">
  <defs>
    <style>
      .cls-1 {
        fill: #010103;
        fill-rule: evenodd;
      }
    </style>
  </defs>
  <path id="logo21.svg" class="cls-1" d="M649.5,703A33.5,33.5,0,1,1,616,736.5h0A33.5,33.5,0,0,1,649.5,703Zm-20.461,39.3h0.832a4.147,4.147,0,0,0,1.416-.208,2.927,2.927,0,0,0,1.064-.7,3.346,3.346,0,0,0,.568-0.8,5.624,5.624,0,0,0,.456-1.265,13.4,13.4,0,0,0,.3-1.848,25.268,25.268,0,0,0,.112-2.552V733.2h3.088v9h2.432V731.033h-7.888v3.551q0,1.281-.072,2.185a12.143,12.143,0,0,1-.208,1.543,4.8,4.8,0,0,1-.328,1.048,2.571,2.571,0,0,1-.448.68h-1.328V742.3h0Zm19.232-.272a4.049,4.049,0,0,0,1.552-1.1,5.085,5.085,0,0,0,.992-1.807,9.073,9.073,0,0,0,0-5.009,5.1,5.1,0,0,0-.992-1.807,4.062,4.062,0,0,0-1.552-1.1,5.713,5.713,0,0,0-4.032,0,4.062,4.062,0,0,0-1.552,1.1,5.061,5.061,0,0,0-.992,1.807,9.092,9.092,0,0,0,0,5.009,5.061,5.061,0,0,0,.992,1.807,4.049,4.049,0,0,0,1.552,1.1,5.7,5.7,0,0,0,4.032,0h0Zm-3.736-2.512a3.089,3.089,0,0,1-.616-2.064v-1.663a3.089,3.089,0,0,1,.616-2.064,2.415,2.415,0,0,1,3.414-.027h0l0.026,0.027a3.083,3.083,0,0,1,.616,2.064v1.663a3.089,3.089,0,0,1-.616,2.064,2.414,2.414,0,0,1-3.414.024h0l-0.026-.026h0v0ZM653.2,742.2h2.432v-9.008h4.128v-2.16H653.2V742.2Zm14.319-.175a4.063,4.063,0,0,0,1.552-1.1,5.074,5.074,0,0,0,.992-1.808,9.073,9.073,0,0,0,0-5.009,5.074,5.074,0,0,0-.992-1.808,4.063,4.063,0,0,0-1.552-1.1,5.713,5.713,0,0,0-4.032,0,4.07,4.07,0,0,0-1.552,1.1,5.113,5.113,0,0,0-.992,1.808,9.092,9.092,0,0,0,0,5.009,5.113,5.113,0,0,0,.992,1.808,4.07,4.07,0,0,0,1.552,1.1,5.711,5.711,0,0,0,4.031,0h0Zm-3.736-2.513a3.089,3.089,0,0,1-.616-2.064v-1.664a3.088,3.088,0,0,1,.616-2.063,2.415,2.415,0,0,1,3.414-.027h0l0.026,0.027a3.077,3.077,0,0,1,.616,2.063v1.664a3.078,3.078,0,0,1-.616,2.064,2.413,2.413,0,0,1-3.413.029h0l-0.027-.028h0Z" transform="translate(-616 -703)"/>
</svg>

