<svg xmlns="http://www.w3.org/2000/svg" width="245" height="245" viewBox="0 0 245 245">
  <defs>
    <style>
      .cls-1 {
        fill: #010103;
        fill-rule: evenodd;
      }
    </style>
  </defs>
  <path id="clothes3.svg" class="cls-1" d="M1191.54,1713.01h-15.91a10.725,10.725,0,0,0,0,21.45h15.91A10.725,10.725,0,0,0,1191.54,1713.01Zm0,15.32h-15.91a4.6,4.6,0,0,1,0-9.2h15.91A4.6,4.6,0,1,1,1191.54,1728.33Zm67.02,50.79a24.755,24.755,0,1,0,24.76,24.75A24.774,24.774,0,0,0,1258.56,1779.12Zm0,43.38a18.63,18.63,0,1,1,18.63-18.63A18.654,18.654,0,0,1,1258.56,1822.5Zm0-92.13a12.91,12.91,0,1,0,12.91,12.91A12.929,12.929,0,0,0,1258.56,1730.37Zm0,19.7a6.79,6.79,0,1,1,6.79-6.79A6.794,6.794,0,0,1,1258.56,1750.07Zm0,42.61a11.19,11.19,0,1,0,11.19,11.19A11.2,11.2,0,0,0,1258.56,1792.68Zm0,16.26a5.065,5.065,0,1,1,5.07-5.07A5.068,5.068,0,0,1,1258.56,1808.94Zm49.66,65.57v-15.9a180.917,180.917,0,0,0-2.86-32.01c-3.76-20.93-10.07-57.8-10.12-70.41h15.69a3.054,3.054,0,0,0,3.06-3.06v-39.48a3.045,3.045,0,0,0-3.05-3.06h-15.76a18.145,18.145,0,0,0-18.07-16.84H1172.87v-7.4h10.72a3.065,3.065,0,0,0,0-6.13h-0.64v-17.1h0.64a3.06,3.06,0,1,0,0-6.12h-28.2a3.06,3.06,0,0,0,0,6.12h1.27v17.1h-1.27a3.065,3.065,0,0,0,0,6.13h11.35v7.4h-56.78v-17.1a3.06,3.06,0,1,0-6.12,0v17.22a28.337,28.337,0,0,0-26.03,28.21v37.52a14.039,14.039,0,0,0,14.02,14.03h0.1v8.55a3.064,3.064,0,0,0,3.07,3.07h8.84v24.36a3.06,3.06,0,1,0,6.12,0v-24.36h8.84a3.064,3.064,0,0,0,3.07-3.07v-8.55h8.3a13.933,13.933,0,0,0,9.92-4.11l12.36-12.36a19.025,19.025,0,0,1,13.54-5.61h42.71a9.483,9.483,0,0,1,9.47,9.47v78.32H1097.79a23.044,23.044,0,0,0-23.02,23.02v12.16a9.806,9.806,0,0,0-5.77,8.91v8.77a9.816,9.816,0,0,0,9.8,9.8h225.39a9.818,9.818,0,0,0,9.81-9.8v-8.77A9.813,9.813,0,0,0,1308.22,1874.51Zm-12.98-157.79h12.64v33.34h-12.64v-33.34Zm-132.45-36.5v-17.1h14.04v17.1h-14.04Zm-47.05,98.9h-17.68v-5.49h17.68v5.49h0Zm92.96-33.7h-42.71a25.1,25.1,0,0,0-17.87,7.41l-12.36,12.35a7.827,7.827,0,0,1-5.59,2.32h-38.34a7.917,7.917,0,0,1-7.9-7.9v-37.52a22.229,22.229,0,0,1,22.2-22.21h170.98a12.027,12.027,0,0,1,12.01,12.01v44.14c0,12.94,6.4,50.45,10.22,71.66,0.69,3.86,1.22,7.75,1.65,11.66h-76.7v-78.32A15.612,15.612,0,0,0,1208.7,1745.42Zm-127.8,116.94a16.915,16.915,0,0,1,16.89-16.9h203.78c0.33,4.39.53,8.77,0.53,13.15v15.01H1080.9v-11.26Zm226.98,29.83a3.69,3.69,0,0,1-3.68,3.68H1078.8a3.681,3.681,0,0,1-3.67-3.68v-8.77a3.679,3.679,0,0,1,3.67-3.67h225.4a3.679,3.679,0,0,1,3.67,3.67l0.01,8.77h0Z" transform="translate(-1069 -1657)"/>
</svg>

