<svg xmlns="http://www.w3.org/2000/svg" width="247" height="247" viewBox="0 0 247 247">
  <defs>
    <style>
      .cls-1 {
        fill: #fff;
        fill-rule: evenodd;
      }
    </style>
  </defs>
  <path id="_22.svg" data-name="22.svg" class="cls-1" d="M1445.22,1675.61v15.28a10.824,10.824,0,0,1,5.78,9.54v8.77a10.834,10.834,0,0,1-10.81,10.8H1214.8a10.832,10.832,0,0,1-10.8-10.8v-8.77a10.83,10.83,0,0,1,5.77-9.53v-11.54a24.079,24.079,0,0,1,24.02-24.02h119.38v-77.32a8.506,8.506,0,0,0-8.47-8.47h-42.76a18.179,18.179,0,0,0-12.78,5.31l-12.36,12.37a15.032,15.032,0,0,1-10.59,4.4h-7.34v7.55a4.08,4.08,0,0,1-4.07,4.07h-7.84v23.36a4.046,4.046,0,0,1-4.06,4.06h-0.01a4.061,4.061,0,0,1-4.05-4.06v-23.36H1231a4.067,4.067,0,0,1-4.07-4.07v-7.58a15.065,15.065,0,0,1-14.12-15v-37.52a29.524,29.524,0,0,1,26.03-29.12v-16.31a4.046,4.046,0,0,1,4.06-4.06h0a4.063,4.063,0,0,1,4.06,4.06v16.1h54.78v-5.4h-10.35a4.065,4.065,0,1,1,0-8.13h0.27v-15.1h-0.27a4.06,4.06,0,0,1,0-8.12h28.2a4.058,4.058,0,0,1,.36,8.1v15.14a4.063,4.063,0,0,1-.36,8.11h-9.72v5.4h103.24a19.234,19.234,0,0,1,18.98,16.84h14.85a4.054,4.054,0,0,1,4.05,4.06v39.48a4.063,4.063,0,0,1-4.06,4.06h-14.68c0.36,13.33,6.44,48.88,10.09,69.23A182.011,182.011,0,0,1,1445.22,1675.61Zm-2.34-109.55v-31.34h-10.64v31.34h10.64Zm-131.05-69.84v-15.1h-12.04v15.1h12.04Zm-76.77,95.41v3.49h15.68v-3.49h-15.68Zm207.82,117.56-0.01-8.77a2.676,2.676,0,0,0-2.67-2.67H1214.8a2.676,2.676,0,0,0-2.67,2.67v8.77a2.684,2.684,0,0,0,2.67,2.68h225.4A2.693,2.693,0,0,0,1442.88,1709.19Zm-5.78-19.57v-14.01c0-3.82-.15-7.8-0.46-12.15H1233.79a15.945,15.945,0,0,0-15.89,15.9v10.26h219.2Zm-75.81-111.6v77.32h74.58c-0.43-3.78-.93-7.22-1.52-10.48-3.82-21.23-10.23-58.79-10.23-71.84v-44.14a11.049,11.049,0,0,0-11.01-11.01H1242.13a21.258,21.258,0,0,0-21.2,21.21v37.52a6.927,6.927,0,0,0,6.9,6.9h38.36a6.889,6.889,0,0,0,4.86-2.02l12.36-12.36a26.3,26.3,0,0,1,18.52-7.7h42.77A16.64,16.64,0,0,1,1361.29,1578.02Zm33.27,17.1h0a25.755,25.755,0,0,1,.01,51.51h-0.01A25.755,25.755,0,0,1,1394.56,1595.12Zm0,43.38a17.63,17.63,0,1,0-17.63-17.63A17.677,17.677,0,0,0,1394.56,1638.5Zm0-29.82h0a12.19,12.19,0,1,1-12.19,12.19A12.219,12.219,0,0,1,1394.56,1608.68Zm-4.06,12.19a4.063,4.063,0,0,0,4.06,4.07h0a4.065,4.065,0,1,0,.01-8.13h0A4.071,4.071,0,0,0,1390.5,1620.87Zm4.06-46.68a13.91,13.91,0,1,1,0-27.82h0A13.91,13.91,0,0,1,1394.56,1574.19Zm5.79-13.91a5.8,5.8,0,0,0-5.79-5.79h0a5.79,5.79,0,0,0,0,11.58A5.8,5.8,0,0,0,1400.35,1560.28Zm-72.81-7.82h-15.91a11.725,11.725,0,0,1,0-23.45h15.91A11.725,11.725,0,0,1,1327.54,1552.46Zm3.61-11.74a3.6,3.6,0,0,0-3.6-3.59h-15.92a3.6,3.6,0,0,0-2.54,6.14,3.572,3.572,0,0,0,2.54,1.06h15.94A3.6,3.6,0,0,0,1331.15,1540.72Z" transform="translate(-1204 -1473)"/>
</svg>

