<svg xmlns="http://www.w3.org/2000/svg" width="35.719" height="41.5" viewBox="0 0 35.719 41.5">
  <defs>
    <style>
      .cls-1 {
        fill: #222;
        fill-rule: evenodd;
      }
    </style>
  </defs>
  <path id="languages7.svg" class="cls-1" d="M702.253,670.47l-0.822,1.991,0.67,0.279-10.682,25.879c-0.982,2.382-4.988,7.528-5.159,7.745l-0.357.46-1.17-.486-0.581,1.409a0.769,0.769,0,0,1-.709.477,0.731,0.731,0,0,1-.294-0.061,0.768,0.768,0,0,1-.414-1l0.582-1.409-1.169-.486,0.07-.581c0.034-.274.827-6.754,1.81-9.136l9.443-22.879a2.517,2.517,0,0,0-2.754,1.526l-3.534,8.562a0.769,0.769,0,0,1-.709.477,0.756,0.756,0,0,1-.292-0.06,0.771,0.771,0,0,1-.417-1.006l3.535-8.562a4.044,4.044,0,0,1,4.767-2.379l0.643-1.559,0.671,0.279,0.821-1.992a1.678,1.678,0,0,1,1.731-.964h0.035a6.126,6.126,0,0,1,3.716,1.545A1.7,1.7,0,0,1,702.253,670.47Zm-18.439,33.821,1.6,0.663a55.047,55.047,0,0,0,4.39-6.487l-4.519-1.878A55.607,55.607,0,0,0,683.814,704.291Zm11.726-32.613-9.692,23.481,4.557,1.894,9.692-23.48Zm3.829-2.807a2.841,2.841,0,0,0-1.763-.3l-0.81,1.96,3.219,1.338,0.808-1.96A2.847,2.847,0,0,0,699.369,668.871Zm-32.018,10.385v-1.54h17.762l-0.635,1.54H667.351Zm5.836-7.4h11.675V673.4H673.187v-1.539Zm-5.836,10.946h16.075a3.1,3.1,0,0,0,.623,1.538h-16.7v-1.538Zm9.855,15.347h-9.855v-1.54h9.855v1.54Zm-9.855-10.258h9.855v1.538h-9.855v-1.538Zm0.027,18.713a1.116,1.116,0,0,0,.277.536,0.6,0.6,0,0,0,.2.045,1.91,1.91,0,0,0,.471-0.214c0.419-.238.89-0.573,1.375-0.9,1.9-1.295,2.693-1.983,3.542-1.539,0.828,0.408.462,1.445,0.446,2.053-0.021.7,0.109,0.58,0.887,0.347a4.317,4.317,0,0,1,1.943-.249,2.165,2.165,0,0,1,.492.124,6.848,6.848,0,0,1,1.111.691c0.564,0.329,2.159.008,2.8-.109a6.518,6.518,0,0,1-2.4.94c-1.091.08-1.355-.45-1.817-0.469a1.111,1.111,0,0,0-.295-0.023,3.67,3.67,0,0,0-1.381.382c-2.033.815-2.892-.235-2.863-1.661,0-.125.023-0.351,0.023-0.351l-0.194.116c-0.536.317-1.066,0.622-1.592,0.91a14.52,14.52,0,0,1-1.6.784c-1.362.476-2.137-.142-2.159-1.306a6.9,6.9,0,0,1,.518-2.527A10.262,10.262,0,0,0,667.378,706.607Z" transform="translate(-666.656 -667)"/>
</svg>

