<svg xmlns="http://www.w3.org/2000/svg" width="14.53" height="820.685" viewBox="0 0 14.53 820.685">
  <defs>
    <style>
      .cls-1 {
        fill: #fff;
        fill-rule: evenodd;
        opacity: 0.1;
      }
    </style>
  </defs>
  <path id="line.svg" class="cls-1" d="M1897.67,792.18a0.94,0.94,0,0,1,.02-1.338l1.79-1.717h2.32a0.935,0.935,0,0,1-.29.682l-2.51,2.4A0.931,0.931,0,0,1,1897.67,792.18Zm-5.33,4.186a0.959,0.959,0,0,1,.29-0.684l2.53-2.422a0.948,0.948,0,0,1,1.31,1.37l-2.53,2.421a0.948,0.948,0,0,1-1.34-.03A0.967,0.967,0,0,1,1892.34,796.366Zm-5.04,4.82a0.933,0.933,0,0,1,.29-0.685l2.51-2.4a0.948,0.948,0,0,1,1.31,1.37l-1.8,1.713,1.8,1.714a0.948,0.948,0,0,1-1.31,1.37l-2.51-2.4A0.932,0.932,0,0,1,1887.3,801.186Zm5.04,4.82a0.967,0.967,0,0,1,.26-0.654,0.949,0.949,0,0,1,1.34-.031l2.53,2.422a0.948,0.948,0,0,1-1.31,1.37l-2.53-2.422A0.96,0.96,0,0,1,1892.34,806.006Zm5.06,9.64a0.931,0.931,0,0,1,.3-0.685l1.79-1.713-1.79-1.713a0.947,0.947,0,0,1-.03-1.339,0.936,0.936,0,0,1,1.33-.031l2.51,2.4a0.966,0.966,0,0,1,0,1.37l-2.51,2.4A0.951,0.951,0,0,1,1897.4,815.646Zm-5.06,4.843a0.959,0.959,0,0,1,.29-0.684l2.53-2.422a0.948,0.948,0,0,1,1.31,1.37l-2.53,2.421a0.949,0.949,0,0,1-1.34-.03A0.967,0.967,0,0,1,1892.34,820.489Zm-5.04,4.821h0a0.933,0.933,0,0,1,.29-0.685l2.51-2.4a0.948,0.948,0,0,1,1.31,1.37l-1.8,1.713,1.8,1.714a0.948,0.948,0,0,1-1.31,1.37l-2.51-2.4A0.935,0.935,0,0,1,1887.3,825.31Zm5.04,4.821a0.965,0.965,0,0,1,.26-0.654,0.949,0.949,0,0,1,1.34-.031l2.53,2.422a0.948,0.948,0,0,1-1.31,1.37l-2.53-2.422A0.96,0.96,0,0,1,1892.34,830.131Zm5.06,4.845a0.951,0.951,0,0,1,1.6-.685l2.51,2.4a0.964,0.964,0,0,1,0,1.369l-2.51,2.4a0.935,0.935,0,0,1-1.33-.03,0.945,0.945,0,0,1,.03-1.338l1.79-1.715-1.79-1.714A0.934,0.934,0,0,1,1897.4,834.976Zm-5.06,9.644a0.959,0.959,0,0,1,.29-0.684l2.53-2.423a0.947,0.947,0,1,1,1.31,1.368l-2.53,2.424a0.949,0.949,0,0,1-1.34-.03A0.967,0.967,0,0,1,1892.34,844.62Zm-5.04,4.823a0.933,0.933,0,0,1,.29-0.685l2.51-2.4a0.944,0.944,0,0,1,1.3,1.369l-1.79,1.715,1.8,1.714a0.948,0.948,0,0,1-1.31,1.37l-2.51-2.4A0.933,0.933,0,0,1,1887.3,849.443Zm5.04,4.822a0.967,0.967,0,0,1,.26-0.655,0.948,0.948,0,0,1,1.34-.03l2.53,2.423a0.947,0.947,0,1,1-1.31,1.369l-2.53-2.423A0.959,0.959,0,0,1,1892.34,854.265Zm5.06,9.643a0.931,0.931,0,0,1,.3-0.685l1.79-1.713-1.79-1.715a0.947,0.947,0,0,1-.03-1.339,0.937,0.937,0,0,1,1.33-.03l2.51,2.4a0.945,0.945,0,0,1,.3.685h0a0.943,0.943,0,0,1-.3.685l-2.51,2.4A0.951,0.951,0,0,1,1897.4,863.908Zm-5.06,4.845a0.96,0.96,0,0,1,.29-0.685l2.53-2.423a0.948,0.948,0,0,1,1.31,1.37l-2.53,2.423a0.949,0.949,0,0,1-1.34-.031A0.965,0.965,0,0,1,1892.34,868.753Zm-5.04,4.821a0.933,0.933,0,0,1,.29-0.685l2.51-2.4a0.948,0.948,0,0,1,1.31,1.37l-1.8,1.714,1.8,1.713a0.948,0.948,0,0,1-1.31,1.37l-2.51-2.4A0.933,0.933,0,0,1,1887.3,873.574Zm5.04,4.82a0.967,0.967,0,0,1,.26-0.654,0.949,0.949,0,0,1,1.34-.031l2.53,2.422a0.948,0.948,0,0,1-1.31,1.37l-2.53-2.422A0.96,0.96,0,0,1,1892.34,878.394Zm5.06,9.641a0.934,0.934,0,0,1,.3-0.685l1.79-1.714-1.79-1.713a0.947,0.947,0,0,1-.03-1.339,0.937,0.937,0,0,1,1.33-.031l2.51,2.4a0.964,0.964,0,0,1,0,1.369l-2.51,2.4A0.951,0.951,0,0,1,1897.4,888.035Zm-5.06,4.844a0.96,0.96,0,0,1,.29-0.685l2.53-2.422a0.948,0.948,0,0,1,1.31,1.37l-2.53,2.422a0.949,0.949,0,0,1-1.34-.031A0.967,0.967,0,0,1,1892.34,892.879Zm-5.04,4.821a0.933,0.933,0,0,1,.29-0.685l2.51-2.4a0.948,0.948,0,0,1,1.31,1.37l-1.8,1.714,1.8,1.714a0.948,0.948,0,0,1-1.31,1.37l-2.51-2.4A0.935,0.935,0,0,1,1887.3,897.7Zm5.04,4.821a0.963,0.963,0,0,1,.26-0.654,0.949,0.949,0,0,1,1.34-.031l2.53,2.422a0.948,0.948,0,0,1-1.31,1.37l-2.53-2.422A0.96,0.96,0,0,1,1892.34,902.521Zm5.06,4.845a0.95,0.95,0,0,1,1.6-.685l2.51,2.4a0.966,0.966,0,0,1,0,1.37l-2.51,2.4a0.936,0.936,0,0,1-1.33-.03,0.945,0.945,0,0,1,.03-1.338l1.79-1.716-1.79-1.714A0.931,0.931,0,0,1,1897.4,907.366Zm-5.06,9.644a0.958,0.958,0,0,1,.29-0.684l2.53-2.424a0.947,0.947,0,0,1,1.31,1.369l-2.53,2.424a0.948,0.948,0,0,1-1.34-.031A0.963,0.963,0,0,1,1892.34,917.01Zm-5.04,4.823a0.932,0.932,0,0,1,.29-0.685l2.51-2.4a0.944,0.944,0,0,1,1.3,1.369l-1.79,1.715,1.8,1.714a0.947,0.947,0,1,1-1.31,1.369l-2.51-2.4A0.933,0.933,0,0,1,1887.3,921.833Zm5.04,4.822a0.963,0.963,0,0,1,.26-0.654,0.949,0.949,0,0,1,1.34-.031l2.53,2.423a0.948,0.948,0,0,1-1.31,1.37l-2.53-2.423A0.96,0.96,0,0,1,1892.34,926.655Zm5.06,9.644a0.931,0.931,0,0,1,.3-0.685l1.79-1.714-1.79-1.714a0.947,0.947,0,0,1-.03-1.339,0.936,0.936,0,0,1,1.33-.03l2.51,2.4a0.941,0.941,0,0,1,.3.684h0a0.943,0.943,0,0,1-.3.685l-2.51,2.4A0.951,0.951,0,0,1,1897.4,936.3Zm-5.06,4.845a0.96,0.96,0,0,1,.29-0.685l2.53-2.423a0.948,0.948,0,0,1,1.31,1.37l-2.53,2.423a0.949,0.949,0,0,1-1.34-.031A0.965,0.965,0,0,1,1892.34,941.144Zm-5.04,4.821h0a0.933,0.933,0,0,1,.29-0.685l2.51-2.4a0.948,0.948,0,1,1,1.31,1.37l-1.8,1.713,1.8,1.714a0.948,0.948,0,0,1-1.31,1.37l-2.51-2.4A0.935,0.935,0,0,1,1887.3,945.965Zm5.04,4.821a0.963,0.963,0,0,1,.26-0.654,0.949,0.949,0,0,1,1.34-.031l2.53,2.422a0.948,0.948,0,0,1-1.31,1.37l-2.53-2.422A0.96,0.96,0,0,1,1892.34,950.786Zm5.06,9.642a0.931,0.931,0,0,1,.3-0.685l1.79-1.714-1.79-1.714a0.947,0.947,0,0,1-.03-1.339,0.936,0.936,0,0,1,1.33-.03l2.51,2.4a0.966,0.966,0,0,1,0,1.37l-2.51,2.4A0.951,0.951,0,0,1,1897.4,960.428Zm-5.06,4.844a0.962,0.962,0,0,1,.29-0.685l2.53-2.422a0.948,0.948,0,0,1,1.31,1.37l-2.53,2.422a0.949,0.949,0,0,1-1.34-.031A0.963,0.963,0,0,1,1892.34,965.272Zm-5.04,4.822h0a0.933,0.933,0,0,1,.29-0.685l2.51-2.4a0.948,0.948,0,0,1,1.31,1.37l-1.8,1.714,1.79,1.714a0.944,0.944,0,0,1-1.3,1.369l-2.51-2.4A0.931,0.931,0,0,1,1887.3,970.094Zm5.04,4.822a0.965,0.965,0,0,1,.26-0.654,0.949,0.949,0,0,1,1.34-.031l2.53,2.423a0.948,0.948,0,0,1-1.31,1.37l-2.53-2.423A0.96,0.96,0,0,1,1892.34,974.916Zm5.07,9.645a0.919,0.919,0,0,1,.29-0.684l1.79-1.715-1.79-1.716a0.945,0.945,0,0,1-.03-1.338,0.936,0.936,0,0,1,1.33-.03l2.51,2.4a0.965,0.965,0,0,1,0,1.369l-2.51,2.4a0.935,0.935,0,0,1-1.33-.03A0.918,0.918,0,0,1,1897.41,984.561Zm-5.07,4.847a0.96,0.96,0,0,1,.29-0.685l2.53-2.423a0.947,0.947,0,1,1,1.31,1.368l-2.53,2.424a0.949,0.949,0,0,1-1.34-.03A0.967,0.967,0,0,1,1892.34,989.408Zm-5.04,4.822a0.933,0.933,0,0,1,.29-0.684l2.51-2.4a0.944,0.944,0,0,1,1.3,1.368l-1.79,1.715,1.8,1.714a0.948,0.948,0,0,1-1.31,1.37l-2.51-2.4A0.932,0.932,0,0,1,1887.3,994.23Zm5.04,4.822a0.967,0.967,0,0,1,.26-0.655,0.948,0.948,0,0,1,1.34-.03l2.53,2.423a0.948,0.948,0,1,1-1.31,1.37l-2.53-2.424A0.959,0.959,0,0,1,1892.34,999.052Zm5.06,9.648a0.948,0.948,0,0,1,.3-0.69l1.79-1.71-1.79-1.72a0.944,0.944,0,0,1,1.3-1.37l2.51,2.4a0.966,0.966,0,0,1,0,1.37l-2.51,2.4a0.936,0.936,0,0,1-1.33-.03A0.925,0.925,0,0,1,1897.4,1008.7Zm-5.06,4.84a0.978,0.978,0,0,1,.29-0.69l2.53-2.42a0.948,0.948,0,0,1,1.31,1.37l-2.53,2.42A0.945,0.945,0,0,1,1892.34,1013.54Zm-5.04,4.82a0.906,0.906,0,0,1,.29-0.68l2.51-2.4a0.948,0.948,0,0,1,1.31,1.37l-1.8,1.71,1.8,1.71a0.957,0.957,0,0,1,.03,1.34,0.939,0.939,0,0,1-1.34.03l-2.51-2.39A0.944,0.944,0,0,1,1887.3,1018.36Zm5.04,4.82a0.959,0.959,0,0,1,.26-0.65,0.948,0.948,0,0,1,1.34-.03l2.53,2.42a0.948,0.948,0,1,1-1.31,1.37l-2.53-2.42A0.978,0.978,0,0,1,1892.34,1023.18Zm5.06,4.85a0.95,0.95,0,0,1,1.6-.69l2.51,2.4a0.966,0.966,0,0,1,0,1.37l-2.51,2.4a0.936,0.936,0,0,1-1.33-.03,0.948,0.948,0,0,1,.03-1.34l1.79-1.71-1.79-1.72A0.911,0.911,0,0,1,1897.4,1028.03Zm-5.06,9.64a0.939,0.939,0,0,1,.29-0.68l2.53-2.42a0.944,0.944,0,1,1,1.31,1.36l-2.53,2.43a0.948,0.948,0,0,1-1.34-.03A0.937,0.937,0,0,1,1892.34,1037.67Zm-5.04,4.83a0.944,0.944,0,0,1,.29-0.69l2.51-2.4a0.944,0.944,0,0,1,1.3,1.37l-1.79,1.72,1.8,1.71a0.948,0.948,0,1,1-1.31,1.37l-2.51-2.4A0.922,0.922,0,0,1,1887.3,1042.5Zm5.04,4.82a0.945,0.945,0,0,1,1.6-.68l2.53,2.42a0.948,0.948,0,1,1-1.31,1.37l-2.53-2.43A0.939,0.939,0,0,1,1892.34,1047.32Zm5.06,9.64a0.927,0.927,0,0,1,.3-0.68l1.79-1.71-1.79-1.72a0.948,0.948,0,0,1-.03-1.34,0.936,0.936,0,0,1,1.33-.03l2.51,2.4a0.954,0.954,0,0,1,.3.69h0a0.949,0.949,0,0,1-.3.68l-2.51,2.4a0.936,0.936,0,0,1-1.33-.03A0.948,0.948,0,0,1,1897.4,1056.96Zm-5.06,4.85a0.978,0.978,0,0,1,.29-0.69l2.53-2.42a0.948,0.948,0,1,1,1.31,1.37l-2.53,2.42a0.939,0.939,0,0,1-1.34-.03A0.959,0.959,0,0,1,1892.34,1061.81Zm-5.04,4.82h0a0.906,0.906,0,0,1,.29-0.68l2.51-2.4a0.948,0.948,0,0,1,1.31,1.37l-1.8,1.71,1.8,1.72a0.944,0.944,0,1,1-1.31,1.36l-2.51-2.4A0.906,0.906,0,0,1,1887.3,1066.63Zm5.04,4.82a0.959,0.959,0,0,1,.26-0.65,0.948,0.948,0,0,1,1.34-.03l2.53,2.42a0.948,0.948,0,1,1-1.31,1.37l-2.53-2.42A0.978,0.978,0,0,1,1892.34,1071.45Zm5.07,4.85a0.94,0.94,0,0,1,1.59-.69l2.51,2.4a0.966,0.966,0,0,1,0,1.37l-2.51,2.4a0.936,0.936,0,0,1-1.33-.03,0.948,0.948,0,0,1,.03-1.34l1.79-1.71-1.79-1.72A0.9,0.9,0,0,1,1897.41,1076.3Zm-5.07,9.64a0.955,0.955,0,0,1,.29-0.68l2.53-2.42a0.948,0.948,0,1,1,1.31,1.37l-2.53,2.42a0.948,0.948,0,0,1-1.34-.03A0.965,0.965,0,0,1,1892.34,1085.94Zm-5.04,4.83a0.944,0.944,0,0,1,.29-0.69l2.51-2.4a0.944,0.944,0,0,1,1.3,1.37l-1.79,1.72,1.8,1.71a0.948,0.948,0,1,1-1.31,1.37l-2.51-2.4A0.922,0.922,0,0,1,1887.3,1090.77Zm5.04,4.82a0.945,0.945,0,0,1,1.6-.68l2.53,2.42a0.948,0.948,0,1,1-1.31,1.37l-2.53-2.43A0.939,0.939,0,0,1,1892.34,1095.59Zm5.07,9.64a0.916,0.916,0,0,1,.29-0.68l1.79-1.71-1.79-1.72a0.948,0.948,0,0,1-.03-1.34,0.936,0.936,0,0,1,1.33-.03l2.51,2.4a0.966,0.966,0,0,1,0,1.37l-2.51,2.4a0.936,0.936,0,0,1-1.33-.03A0.921,0.921,0,0,1,1897.41,1105.23Zm-5.07,4.85a0.939,0.939,0,0,1,.29-0.68l2.53-2.43a0.948,0.948,0,1,1,1.31,1.37l-2.53,2.42A0.945,0.945,0,0,1,1892.34,1110.08Zm-5.04,4.82h0a0.922,0.922,0,0,1,.29-0.68l2.51-2.4a0.948,0.948,0,1,1,1.31,1.37l-1.8,1.71,1.79,1.72a0.944,0.944,0,0,1-1.3,1.37l-2.51-2.4A0.944,0.944,0,0,1,1887.3,1114.9Zm5.04,4.82a0.959,0.959,0,0,1,.26-0.65,0.948,0.948,0,0,1,1.34-.03l2.53,2.42a0.948,0.948,0,1,1-1.31,1.37l-2.53-2.42A0.978,0.978,0,0,1,1892.34,1119.72Zm5.07,4.85a0.914,0.914,0,0,1,.26-0.65,0.936,0.936,0,0,1,1.33-.03l2.51,2.4a0.966,0.966,0,0,1,0,1.37l-2.51,2.39a0.941,0.941,0,0,1-1.3-1.36l1.79-1.72-1.79-1.71A0.938,0.938,0,0,1,1897.41,1124.57Zm-5.07,9.65a0.978,0.978,0,0,1,.29-0.69l2.53-2.42a0.948,0.948,0,1,1,1.31,1.37l-2.53,2.42a0.948,0.948,0,0,1-1.34-.03A0.959,0.959,0,0,1,1892.34,1134.22Zm-5.04,4.82a0.906,0.906,0,0,1,.29-0.68l2.51-2.4a0.944,0.944,0,0,1,1.3,1.37l-1.79,1.71,1.8,1.71a0.957,0.957,0,0,1,.03,1.34,0.939,0.939,0,0,1-1.34.03l-2.51-2.39A0.944,0.944,0,0,1,1887.3,1139.04Zm5.04,4.82a0.959,0.959,0,0,1,.26-0.65,0.948,0.948,0,0,1,1.34-.03l2.53,2.42a0.948,0.948,0,1,1-1.31,1.37l-2.53-2.42A0.978,0.978,0,0,1,1892.34,1143.86Zm5.07,4.85a0.94,0.94,0,0,1,1.59-.69l2.51,2.4a0.966,0.966,0,0,1,0,1.37l-2.51,2.4a0.936,0.936,0,0,1-1.33-.03,0.948,0.948,0,0,1,.03-1.34l1.79-1.71-1.79-1.72A0.9,0.9,0,0,1,1897.41,1148.71Zm-5.07,9.64a0.939,0.939,0,0,1,.29-0.68l2.53-2.42a0.944,0.944,0,1,1,1.31,1.36l-2.53,2.43a0.948,0.948,0,0,1-1.34-.03A0.983,0.983,0,0,1,1892.34,1158.35Zm-5.04,4.83a0.944,0.944,0,0,1,.29-0.69l2.51-2.4a0.944,0.944,0,0,1,1.3,1.37l-1.79,1.72,1.79,1.71a0.944,0.944,0,0,1-1.3,1.37l-2.51-2.4A0.939,0.939,0,0,1,1887.3,1163.18Zm5.04,4.82a0.95,0.95,0,0,1,1.6-.69l2.53,2.43a0.948,0.948,0,1,1-1.31,1.37l-2.53-2.43A0.939,0.939,0,0,1,1892.34,1168Zm5.07,4.85a0.94,0.94,0,0,1,1.59-.69l2.51,2.4a0.954,0.954,0,0,1,.3.69h0a0.932,0.932,0,0,1-.3.68l-2.51,2.4a0.936,0.936,0,0,1-1.33-.03,0.948,0.948,0,0,1,.03-1.34l1.79-1.71-1.79-1.72A0.9,0.9,0,0,1,1897.41,1172.85Zm-5.07,9.64a0.939,0.939,0,0,1,.29-0.68l2.53-2.43a0.948,0.948,0,1,1,1.31,1.37l-2.53,2.43a0.957,0.957,0,0,1-1.34-.03A0.937,0.937,0,0,1,1892.34,1182.49Zm-5.04,4.82a0.939,0.939,0,0,1,.29-0.68l2.51-2.4a0.944,0.944,0,0,1,1.3,1.37l-1.79,1.71,1.79,1.72a0.944,0.944,0,0,1-1.3,1.37l-2.51-2.4A0.944,0.944,0,0,1,1887.3,1187.31Zm5.04,4.83a0.983,0.983,0,0,1,.26-0.66,0.948,0.948,0,0,1,1.34-.03l2.53,2.43a0.944,0.944,0,1,1-1.31,1.36l-2.53-2.42A0.955,0.955,0,0,1,1892.34,1192.14Zm5.07,9.64a0.916,0.916,0,0,1,.29-0.68l1.79-1.72-1.79-1.71a0.948,0.948,0,0,1-.03-1.34,0.936,0.936,0,0,1,1.33-.03l2.51,2.4a0.966,0.966,0,0,1,0,1.37l-2.51,2.4A0.94,0.94,0,0,1,1897.41,1201.78Zm-5.07,4.85a0.939,0.939,0,0,1,.29-0.68l2.53-2.43a0.948,0.948,0,1,1,1.31,1.37l-2.53,2.42a0.948,0.948,0,0,1-1.34-.02A0.983,0.983,0,0,1,1892.34,1206.63Zm-5.04,4.82a0.922,0.922,0,0,1,.29-0.68l2.51-2.4a0.944,0.944,0,0,1,1.3,1.37l-1.79,1.71,1.79,1.72a0.944,0.944,0,0,1-1.3,1.37l-2.51-2.4A0.944,0.944,0,0,1,1887.3,1211.45Zm5.04,4.83a0.965,0.965,0,0,1,.26-0.66,0.948,0.948,0,0,1,1.34-.03l2.53,2.42a0.948,0.948,0,1,1-1.31,1.37l-2.53-2.42A0.973,0.973,0,0,1,1892.34,1216.28Zm5.07,9.64a0.9,0.9,0,0,1,.29-0.68l1.79-1.72-1.79-1.71a0.948,0.948,0,0,1-.03-1.34,0.936,0.936,0,0,1,1.33-.03l2.51,2.4a0.966,0.966,0,0,1,0,1.37l-2.51,2.4A0.94,0.94,0,0,1,1897.41,1225.92Zm-5.07,4.85a0.978,0.978,0,0,1,.29-0.69l2.53-2.42a0.948,0.948,0,1,1,1.31,1.37l-2.53,2.42a0.948,0.948,0,0,1-1.34-.03A0.914,0.914,0,0,1,1892.34,1230.77Zm-5.04,4.82a0.922,0.922,0,0,1,.29-0.68l2.51-2.4a0.944,0.944,0,0,1,1.3,1.37l-1.79,1.71,1.79,1.72a0.944,0.944,0,0,1-1.3,1.37l-2.51-2.4A0.944,0.944,0,0,1,1887.3,1235.59Zm5.04,4.83a0.965,0.965,0,0,1,.26-0.66,0.948,0.948,0,0,1,1.34-.03l2.53,2.42a0.948,0.948,0,1,1-1.31,1.37l-2.53-2.42A0.973,0.973,0,0,1,1892.34,1240.42Zm5.07,9.64a0.9,0.9,0,0,1,.29-0.68l1.79-1.72-1.79-1.71a0.948,0.948,0,0,1-.03-1.34,0.936,0.936,0,0,1,1.33-.03l2.51,2.4a0.966,0.966,0,0,1,0,1.37l-2.51,2.39A0.935,0.935,0,0,1,1897.41,1250.06Zm-5.07,4.85a0.939,0.939,0,0,1,.29-0.68l2.53-2.43a0.948,0.948,0,1,1,1.31,1.37l-2.53,2.42A0.945,0.945,0,0,1,1892.34,1254.91Zm-5.04,4.82a0.922,0.922,0,0,1,.29-0.68l2.51-2.4a0.944,0.944,0,0,1,1.3,1.37l-1.79,1.71,1.79,1.72a0.944,0.944,0,0,1-1.3,1.37l-2.51-2.4A0.944,0.944,0,0,1,1887.3,1259.73Zm5.04,4.83a0.965,0.965,0,0,1,.26-0.66,0.948,0.948,0,0,1,1.34-.03l2.53,2.42a0.948,0.948,0,1,1-1.31,1.37l-2.53-2.42A0.973,0.973,0,0,1,1892.34,1264.56Zm5.07,9.64a0.9,0.9,0,0,1,.29-0.68l1.79-1.72-1.79-1.71a0.948,0.948,0,0,1-.03-1.34,0.936,0.936,0,0,1,1.33-.03l2.51,2.4a0.966,0.966,0,0,1,0,1.37l-2.51,2.4A0.94,0.94,0,0,1,1897.41,1274.2Zm-5.07,4.85a0.939,0.939,0,0,1,.29-0.68l2.53-2.43a0.948,0.948,0,1,1,1.31,1.37l-2.53,2.42A0.945,0.945,0,0,1,1892.34,1279.05Zm-5.04,4.82a0.922,0.922,0,0,1,.29-0.68l2.51-2.4a0.944,0.944,0,0,1,1.3,1.37l-1.79,1.71,1.79,1.72a0.944,0.944,0,0,1-1.3,1.37l-2.51-2.4A0.944,0.944,0,0,1,1887.3,1283.87Zm5.04,4.83a0.983,0.983,0,0,1,.26-0.66,0.957,0.957,0,0,1,1.34-.03l2.53,2.43a0.944,0.944,0,1,1-1.31,1.36l-2.53-2.42A0.939,0.939,0,0,1,1892.34,1288.7Zm5.07,9.64a0.916,0.916,0,0,1,.29-0.68l1.79-1.72-1.79-1.71a0.948,0.948,0,0,1-.03-1.34,0.936,0.936,0,0,1,1.33-.03l2.51,2.4a0.966,0.966,0,0,1,0,1.37l-2.51,2.4A0.94,0.94,0,0,1,1897.41,1298.34Zm-5.07,4.85a0.939,0.939,0,0,1,.29-0.68l2.53-2.43a0.948,0.948,0,1,1,1.31,1.37l-2.53,2.43a0.957,0.957,0,0,1-1.34-.03A0.983,0.983,0,0,1,1892.34,1303.19Zm-5.04,4.82a0.922,0.922,0,0,1,.29-0.68l2.51-2.4a0.944,0.944,0,0,1,1.3,1.37l-1.79,1.71,1.79,1.72a0.944,0.944,0,0,1-1.3,1.37l-2.51-2.4A0.944,0.944,0,0,1,1887.3,1308.01Zm5.04,4.83a0.983,0.983,0,0,1,.26-0.66,0.957,0.957,0,0,1,1.34-.03l2.53,2.43a0.948,0.948,0,1,1-1.31,1.37l-2.53-2.43A0.939,0.939,0,0,1,1892.34,1312.84Zm5.07,9.64a0.932,0.932,0,0,1,.29-0.68l1.79-1.71-1.79-1.72a0.948,0.948,0,0,1-.03-1.34,0.936,0.936,0,0,1,1.33-.03l2.51,2.4a0.966,0.966,0,0,1,0,1.37l-2.51,2.4a0.936,0.936,0,0,1-1.33-.03A0.921,0.921,0,0,1,1897.41,1322.48Zm-5.07,4.85a0.939,0.939,0,0,1,.29-0.68l2.53-2.43a0.948,0.948,0,1,1,1.31,1.37l-2.53,2.43a0.957,0.957,0,0,1-1.34-.03A0.937,0.937,0,0,1,1892.34,1327.33Zm-5.04,4.83a0.944,0.944,0,0,1,.29-0.69l2.51-2.4a0.944,0.944,0,0,1,1.3,1.37l-1.79,1.72,1.79,1.71a0.944,0.944,0,0,1-1.3,1.37l-2.51-2.4A0.939,0.939,0,0,1,1887.3,1332.16Zm5.04,4.82a0.983,0.983,0,0,1,.26-0.66,0.957,0.957,0,0,1,1.34-.03l2.53,2.43a0.948,0.948,0,1,1-1.31,1.37l-2.53-2.43A0.939,0.939,0,0,1,1892.34,1336.98Zm5.06,9.64a0.943,0.943,0,0,1,.3-0.68l1.79-1.71-1.79-1.72a0.944,0.944,0,0,1,1.3-1.37l2.51,2.4a0.954,0.954,0,0,1,.3.69h0a0.932,0.932,0,0,1-.3.68l-2.51,2.4A0.95,0.95,0,0,1,1897.4,1346.62Zm-5.06,4.85a0.939,0.939,0,0,1,.29-0.68l2.53-2.43a0.948,0.948,0,1,1,1.31,1.37l-2.53,2.42A0.945,0.945,0,0,1,1892.34,1351.47Zm-5.04,4.82h0a0.922,0.922,0,0,1,.29-0.68l2.51-2.4a0.948,0.948,0,1,1,1.31,1.37l-1.8,1.71,1.79,1.72a0.941,0.941,0,1,1-1.3,1.36l-2.51-2.4A0.906,0.906,0,0,1,1887.3,1356.29Zm5.04,4.82a0.959,0.959,0,0,1,.26-0.65,0.948,0.948,0,0,1,1.34-.03l2.53,2.42a0.948,0.948,0,1,1-1.31,1.37l-2.53-2.42A0.978,0.978,0,0,1,1892.34,1361.11Zm5.06,9.65a0.948,0.948,0,0,1,.3-0.69l1.79-1.71-1.79-1.71a0.948,0.948,0,0,1-.03-1.34,0.936,0.936,0,0,1,1.33-.03l2.51,2.4a0.932,0.932,0,0,1,.3.68h0a0.954,0.954,0,0,1-.3.69l-2.51,2.39a0.936,0.936,0,0,1-1.33-.03A0.925,0.925,0,0,1,1897.4,1370.76Zm-5.06,4.84a0.973,0.973,0,0,1,.29-0.68l2.53-2.42a0.948,0.948,0,1,1,1.31,1.37l-2.53,2.42a0.948,0.948,0,0,1-1.34-.03A0.965,0.965,0,0,1,1892.34,1375.6Zm-5.04,4.83a0.944,0.944,0,0,1,.29-0.69l2.51-2.4a0.948,0.948,0,1,1,1.31,1.37l-1.8,1.72,1.79,1.71a0.944,0.944,0,1,1-1.3,1.37l-2.51-2.4A0.922,0.922,0,0,1,1887.3,1380.43Zm5.04,4.82a0.983,0.983,0,0,1,.26-0.66,0.948,0.948,0,0,1,1.34-.02l2.53,2.42a0.948,0.948,0,1,1-1.31,1.37l-2.53-2.43A0.939,0.939,0,0,1,1892.34,1385.25Zm5.07,4.85a0.94,0.94,0,0,1,1.59-.69l2.51,2.4a0.954,0.954,0,0,1,.3.69h0a0.949,0.949,0,0,1-.3.68l-2.51,2.4a0.936,0.936,0,0,1-1.33-.03,0.948,0.948,0,0,1,.03-1.34l1.79-1.71-1.79-1.72A0.916,0.916,0,0,1,1897.41,1390.1Zm-5.07,9.64a0.939,0.939,0,0,1,.29-0.68l2.53-2.43a0.948,0.948,0,1,1,1.31,1.37l-2.53,2.42A0.945,0.945,0,0,1,1892.34,1399.74Zm-5.04,4.82a0.922,0.922,0,0,1,.29-0.68l2.51-2.4a0.944,0.944,0,0,1,1.3,1.37l-1.79,1.71,1.79,1.72a0.944,0.944,0,0,1-1.3,1.37l-2.51-2.4A0.944,0.944,0,0,1,1887.3,1404.56Zm5.04,4.83a0.983,0.983,0,0,1,.26-0.66,0.957,0.957,0,0,1,1.34-.03l2.53,2.43a0.948,0.948,0,1,1-1.31,1.37l-2.53-2.43A0.939,0.939,0,0,1,1892.34,1409.39Zm5.07,9.64a0.932,0.932,0,0,1,.29-0.68l1.79-1.72-1.79-1.71a0.948,0.948,0,0,1-.03-1.34,0.936,0.936,0,0,1,1.33-.03l2.51,2.4a0.966,0.966,0,0,1,0,1.37l-2.51,2.4a0.936,0.936,0,0,1-1.33-.03A0.921,0.921,0,0,1,1897.41,1419.03Zm-5.07,4.85a0.939,0.939,0,0,1,.29-0.68l2.53-2.43a0.948,0.948,0,1,1,1.31,1.37l-2.53,2.42a0.948,0.948,0,0,1-1.34-.02A0.983,0.983,0,0,1,1892.34,1423.88Zm-5.04,4.82h0a0.922,0.922,0,0,1,.29-0.68l2.51-2.4a0.944,0.944,0,1,1,1.3,1.37l-1.79,1.71,1.79,1.72a0.944,0.944,0,0,1-1.3,1.37l-2.51-2.4A0.944,0.944,0,0,1,1887.3,1428.7Zm5.04,4.83a0.983,0.983,0,0,1,.26-0.66,0.957,0.957,0,0,1,1.34-.03l2.53,2.43a0.948,0.948,0,1,1-1.31,1.37l-2.53-2.43A0.939,0.939,0,0,1,1892.34,1433.53Zm5.07,4.85a0.921,0.921,0,0,1,.26-0.66,0.936,0.936,0,0,1,1.33-.03l2.51,2.4a0.966,0.966,0,0,1,0,1.37l-2.5,2.4a0.948,0.948,0,0,1-1.31-1.37l1.79-1.71-1.79-1.72A0.932,0.932,0,0,1,1897.41,1438.38Zm-5.07,9.64a0.973,0.973,0,0,1,.29-0.68l2.53-2.42a0.944,0.944,0,1,1,1.31,1.36l-2.53,2.43a0.948,0.948,0,0,1-1.34-.03A0.921,0.921,0,0,1,1892.34,1448.02Zm-5.04,4.83a0.944,0.944,0,0,1,.29-0.69l2.51-2.39a0.941,0.941,0,1,1,1.3,1.36l-1.79,1.72,1.79,1.71a0.944,0.944,0,0,1-1.3,1.37l-2.51-2.4A0.922,0.922,0,0,1,1887.3,1452.85Zm5.04,4.82a0.959,0.959,0,0,1,.26-0.65,0.948,0.948,0,0,1,1.34-.03l2.53,2.42a0.948,0.948,0,1,1-1.31,1.37l-2.53-2.42A0.978,0.978,0,0,1,1892.34,1457.67Zm5.07,9.65a0.9,0.9,0,0,1,.29-0.68l1.79-1.72-1.79-1.71a0.948,0.948,0,0,1-.03-1.34,0.936,0.936,0,0,1,1.33-.03l2.51,2.4a0.954,0.954,0,0,1,0,1.36L1899,1468a0.927,0.927,0,0,1-1.33-.03A0.9,0.9,0,0,1,1897.41,1467.32Zm-5.07,4.85a0.939,0.939,0,0,1,.29-0.68l2.53-2.43a0.948,0.948,0,1,1,1.31,1.37l-2.53,2.42a0.948,0.948,0,0,1-1.34-.03A0.959,0.959,0,0,1,1892.34,1472.17Zm-5.04,4.82a0.922,0.922,0,0,1,.29-0.68l2.51-2.4a0.944,0.944,0,0,1,1.3,1.37l-1.79,1.71,1.79,1.72a0.944,0.944,0,0,1-1.3,1.37l-2.51-2.4A0.944,0.944,0,0,1,1887.3,1476.99Zm5.04,4.83a0.983,0.983,0,0,1,.26-0.66,0.957,0.957,0,0,1,1.34-.03l2.53,2.43a0.948,0.948,0,1,1-1.31,1.37l-2.53-2.43A0.939,0.939,0,0,1,1892.34,1481.82Zm5.07,9.65a0.938,0.938,0,0,1,.29-0.69l1.79-1.71-1.79-1.72a0.948,0.948,0,0,1,1.31-1.37l2.5,2.4a0.966,0.966,0,0,1,0,1.37l-2.5,2.4a0.948,0.948,0,0,1-1.34-.03A0.914,0.914,0,0,1,1897.41,1491.47Zm-5.07,4.85a0.978,0.978,0,0,1,.29-0.69l2.53-2.42a0.948,0.948,0,1,1,1.31,1.37l-2.53,2.42a0.948,0.948,0,0,1-1.34-.03A0.959,0.959,0,0,1,1892.34,1496.32Zm-5.04,4.82a0.922,0.922,0,0,1,.29-0.68l2.51-2.4a0.944,0.944,0,0,1,1.3,1.37l-1.79,1.71,1.79,1.72a0.944,0.944,0,0,1-1.3,1.37l-2.51-2.4A0.944,0.944,0,0,1,1887.3,1501.14Zm5.04,4.83a0.983,0.983,0,0,1,.26-0.66,0.948,0.948,0,0,1,1.34-.03l2.53,2.43a0.948,0.948,0,1,1-1.31,1.37l-2.53-2.43A0.955,0.955,0,0,1,1892.34,1505.97Zm5.07,4.84a0.914,0.914,0,0,1,.26-0.65,0.948,0.948,0,0,1,1.34-.03l2.5,2.4a0.954,0.954,0,0,1,.3.69h0a0.949,0.949,0,0,1-.3.68l-2.5,2.4a0.948,0.948,0,0,1-1.31-1.37l1.79-1.71-1.79-1.72A0.938,0.938,0,0,1,1897.41,1510.81Zm-5.07,9.66a0.978,0.978,0,0,1,.29-0.69l2.53-2.42a0.944,0.944,0,1,1,1.31,1.36l-2.53,2.43a0.948,0.948,0,0,1-1.34-.03A0.959,0.959,0,0,1,1892.34,1520.47Zm-5.04,4.82a0.906,0.906,0,0,1,.29-0.68l2.51-2.4a0.941,0.941,0,1,1,1.3,1.36l-1.79,1.72,1.79,1.71a0.944,0.944,0,0,1-1.3,1.37l-2.51-2.4A0.922,0.922,0,0,1,1887.3,1525.29Zm5.04,4.82a0.959,0.959,0,0,1,.26-0.65,0.948,0.948,0,0,1,1.34-.03l2.53,2.42a0.948,0.948,0,1,1-1.31,1.37l-2.53-2.42A0.978,0.978,0,0,1,1892.34,1530.11Zm5.07,9.65a0.9,0.9,0,0,1,.29-0.68l1.79-1.72-1.79-1.71a0.948,0.948,0,0,1-.03-1.34,0.936,0.936,0,0,1,1.33-.03l2.51,2.4a0.966,0.966,0,0,1,0,1.37l-2.51,2.39a0.927,0.927,0,0,1-1.33-.03A0.9,0.9,0,0,1,1897.41,1539.76Zm-5.07,4.85a0.978,0.978,0,0,1,.29-0.69l2.53-2.42a0.948,0.948,0,1,1,1.31,1.37l-2.53,2.42a0.948,0.948,0,0,1-1.34-.03A0.959,0.959,0,0,1,1892.34,1544.61Zm-5.04,4.82h0a0.922,0.922,0,0,1,.29-0.68l2.51-2.4a0.944,0.944,0,0,1,1.3,1.37l-1.79,1.71,1.79,1.72a0.944,0.944,0,0,1-1.3,1.37l-2.51-2.4A0.944,0.944,0,0,1,1887.3,1549.43Zm5.04,4.83a0.937,0.937,0,0,1,.26-0.66,0.948,0.948,0,0,1,1.34-.03l2.53,2.43a0.948,0.948,0,1,1-1.31,1.37l-2.53-2.43A0.939,0.939,0,0,1,1892.34,1554.26Zm5.07,4.85a0.937,0.937,0,0,1,.26-0.66,0.957,0.957,0,0,1,1.34-.03l2.5,2.4a0.966,0.966,0,0,1,0,1.37l-2.5,2.4a0.948,0.948,0,0,1-1.31-1.37l1.79-1.71-1.79-1.72A0.9,0.9,0,0,1,1897.41,1559.11Zm-5.07,9.65a0.939,0.939,0,0,1,.29-0.68l2.53-2.43a0.948,0.948,0,1,1,1.31,1.37l-2.53,2.42A0.945,0.945,0,0,1,1892.34,1568.76Zm-5.04,4.83h0a0.944,0.944,0,0,1,.29-0.69l2.51-2.4a0.944,0.944,0,0,1,1.3,1.37l-1.79,1.72,1.79,1.71a0.944,0.944,0,0,1-1.3,1.37l-2.51-2.4A0.939,0.939,0,0,1,1887.3,1573.59Zm5.04,4.82a0.914,0.914,0,0,1,.26-0.65,0.948,0.948,0,0,1,1.34-.03l2.53,2.42a0.948,0.948,0,1,1-1.31,1.37l-2.53-2.42A0.978,0.978,0,0,1,1892.34,1578.41Zm5.07,4.85a0.914,0.914,0,0,1,.26-0.65,0.948,0.948,0,0,1,1.34-.03l2.5,2.4a0.966,0.966,0,0,1,0,1.37l-2.5,2.4a0.948,0.948,0,0,1-1.31-1.37l1.79-1.72-1.79-1.71A0.938,0.938,0,0,1,1897.41,1583.26Zm-5.07,9.66a0.978,0.978,0,0,1,.29-0.69l2.53-2.42a0.944,0.944,0,1,1,1.31,1.36l-2.53,2.43a0.948,0.948,0,0,1-1.34-.03A0.959,0.959,0,0,1,1892.34,1592.92Zm-5.04,4.82a0.939,0.939,0,0,1,.29-0.68l2.51-2.4a0.944,0.944,0,0,1,1.3,1.37l-1.79,1.71,1.79,1.72a0.944,0.944,0,0,1-1.3,1.37l-2.51-2.4A0.944,0.944,0,0,1,1887.3,1597.74Zm5.04,4.83a0.914,0.914,0,0,1,.26-0.65,0.948,0.948,0,0,1,1.34-.03l2.53,2.43a0.948,0.948,0,1,1-1.31,1.37l-2.53-2.43A0.978,0.978,0,0,1,1892.34,1602.57Zm9.46,7.26h-2.3l-1.8-1.72a0.927,0.927,0,0,1-.3-0.68,0.948,0.948,0,0,1,.27-0.66,0.927,0.927,0,0,1,1.33-.02l2.51,2.4A0.922,0.922,0,0,1,1901.8,1609.83Z" transform="translate(-1887.28 -789.125)"/>
</svg>
