<svg xmlns="http://www.w3.org/2000/svg" width="677.061" height="14.12" viewBox="0 0 677.061 14.12">
  <defs>
    <style>
      .cls-1 {
        fill: #fff;
        fill-rule: evenodd;
        opacity: 0.1;
      }
    </style>
  </defs>
  <path id="line6.svg" class="cls-1" d="M1614.78,1149.39v2.01l-9.99,11.87a0.767,0.767,0,0,1-.59.27,0.8,0.8,0,0,1-.6-0.27l-9.99-11.87-9.98,11.87a0.822,0.822,0,0,1-1.19,0l-9.99-11.87-9.99,11.87a0.822,0.822,0,0,1-1.19,0l-9.99-11.87-9.99,11.87a0.822,0.822,0,0,1-1.19,0l-9.98-11.87-9.99,11.87a0.822,0.822,0,0,1-1.19,0l-9.99-11.87-9.99,11.87a0.822,0.822,0,0,1-1.19,0l-9.98-11.87-9.99,11.87a0.81,0.81,0,0,1-1.18,0l-9.99-11.87-9.98,11.87a0.833,0.833,0,0,1-1.2,0l-9.98-11.87-9.98,11.87a0.833,0.833,0,0,1-1.2,0l-9.98-11.87-9.99,11.87a0.81,0.81,0,0,1-1.18,0l-9.99-11.87-9.99,11.87a0.822,0.822,0,0,1-1.19,0l-9.99-11.87-9.98,11.87a0.833,0.833,0,0,1-1.2,0l-9.98-11.87-9.98,11.87a0.822,0.822,0,0,1-1.19,0l-9.99-11.87-9.98,11.87a0.833,0.833,0,0,1-1.2,0l-9.98-11.87-9.99,11.87a0.81,0.81,0,0,1-1.18,0l-9.99-11.87-9.98,11.87a0.833,0.833,0,0,1-1.2,0l-9.98-11.87-9.98,11.87a0.833,0.833,0,0,1-1.2,0l-9.98-11.87-9.99,11.87a0.81,0.81,0,0,1-1.18,0l-9.99-11.87-9.98,11.87a0.822,0.822,0,0,1-1.19,0l-9.99-11.87-9.98,11.87a0.822,0.822,0,0,1-1.19,0l-9.99-11.87-9.97,11.87a0.833,0.833,0,0,1-1.2,0l-9.98-11.87-9.98,11.87a0.833,0.833,0,0,1-1.2,0l-9.98-11.87-9.98,11.87a0.822,0.822,0,0,1-1.19,0l-9.98-11.87-9.98,11.87a0.833,0.833,0,0,1-1.2,0l-9.98-11.87-9.98,11.87a0.833,0.833,0,0,1-1.2,0l-9.98-11.87-9.97,11.87a0.822,0.822,0,0,1-1.19,0l-9.98-11.87-9.99,11.87a0.822,0.822,0,0,1-1.19,0l-9.99-11.87-9.98,11.87a0.81,0.81,0,0,1-1.18,0l-9.98-11.87-9.98,11.87a0.822,0.822,0,0,1-1.19,0l-9.98-11.87-9.989,11.87a0.818,0.818,0,0,1-1.187,0l-9.99-11.87-9.979,11.87a0.818,0.818,0,0,1-1.187,0l-9.979-11.87-9.979,11.87a0.819,0.819,0,0,1-1.188,0L937.7,1151.4v-2.01a0.756,0.756,0,0,1,.594.29l9.979,11.86,9.979-11.86a0.788,0.788,0,0,1,1.188,0l9.979,11.86,9.979-11.86a0.8,0.8,0,0,1,1.2,0l9.979,11.86,9.982-11.86a0.791,0.791,0,0,1,1.19,0l9.98,11.86,9.98-11.86a0.791,0.791,0,0,1,1.19,0l9.98,11.86,9.98-11.86a0.8,0.8,0,0,1,1.2,0l9.98,11.86,9.97-11.86a0.8,0.8,0,0,1,1.2,0l9.98,11.86,9.98-11.86a0.791,0.791,0,0,1,1.19,0l9.98,11.86,9.99-11.86a0.78,0.78,0,0,1,1.18,0l9.99,11.86,9.98-11.86a0.791,0.791,0,0,1,1.19,0l9.98,11.86,9.99-11.86a0.791,0.791,0,0,1,1.19,0l9.99,11.86,9.97-11.86a0.791,0.791,0,0,1,1.19,0l9.98,11.86,9.99-11.86a0.791,0.791,0,0,1,1.19,0l9.99,11.86,9.98-11.86a0.8,0.8,0,0,1,1.2,0l9.97,11.86,9.98-11.86a0.8,0.8,0,0,1,1.2,0l9.98,11.86,9.98-11.86a0.8,0.8,0,0,1,1.2,0l9.98,11.86,9.99-11.86a0.78,0.78,0,0,1,1.18,0l9.99,11.86,9.98-11.86a0.8,0.8,0,0,1,1.2,0l9.98,11.86,9.98-11.86a0.8,0.8,0,0,1,1.2,0l9.98,11.86,9.98-11.86a0.791,0.791,0,0,1,1.19,0l9.99,11.86,9.99-11.86a0.791,0.791,0,0,1,1.19,0l9.99,11.86,9.98-11.86a0.8,0.8,0,0,1,1.2,0l9.97,11.86,9.99-11.86a0.791,0.791,0,0,1,1.19,0l9.99,11.86,9.98-11.86a0.8,0.8,0,0,1,1.2,0l9.99,11.86,9.98-11.86a0.78,0.78,0,0,1,1.18,0l9.99,11.86,9.98-11.86a0.791,0.791,0,0,1,1.19,0l9.99,11.86,9.98-11.86a0.8,0.8,0,0,1,1.2,0l9.98,11.86,9.98-11.86a0.791,0.791,0,0,1,1.19,0l9.99,11.86,9.99-11.86a0.791,0.791,0,0,1,1.19,0l9.99,11.86,9.99-11.86a0.791,0.791,0,0,1,1.19,0l9.98,11.86,9.99-11.86a0.791,0.791,0,0,1,1.19,0l9.99,11.86,9.99-11.86a0.791,0.791,0,0,1,1.19,0l9.99,11.86,9.99-11.86A0.753,0.753,0,0,1,1614.78,1149.39Z" transform="translate(-937.719 -1149.41)"/>
</svg>
